<svg width="300" height="42" viewBox="0 0 300 42" fill="none" xmlns="http://www.w3.org/2000/svg">
<path d="M81.668 41.4952V33.5042H85.7905C87.4791 33.5042 88.6204 34.3262 88.6204 35.5933C88.6204 36.381 88.1196 37.0317 87.351 37.397C88.3642 37.728 88.993 38.3901 88.993 39.2692C88.993 40.6048 87.6305 41.4952 85.7905 41.4952H81.668ZM87.0599 35.8445C87.0599 35.2623 86.5242 34.8741 85.7905 34.8741H83.2984V36.792H85.7905C86.4776 36.792 87.0599 36.3924 87.0599 35.8445ZM87.351 39.1208C87.351 38.4701 86.7687 38.1162 85.7905 38.1162H83.2984V40.1139H85.7905C86.7338 40.1139 87.351 39.7372 87.351 39.1208Z" fill="#72584F"/>
<path d="M95.3004 40.1025C96.5698 40.1025 97.4665 39.1436 97.4665 37.7509V33.5042H99.0969V37.7509C99.0969 39.9541 97.5597 41.6322 95.3004 41.6322C93.0877 41.6322 91.5039 39.9541 91.5039 37.7509V33.5042H93.1343V37.7509C93.1343 39.1093 94.0543 40.1025 95.3004 40.1025Z" fill="#72584F"/>
<path d="M109.104 39.2692C109.104 40.5934 107.788 41.6664 105.61 41.6664C103.421 41.6664 101.721 40.6162 101.604 39.0408H103.305C103.479 39.8057 104.399 40.2966 105.587 40.2966C106.694 40.2966 107.474 39.8399 107.474 39.2235C107.474 37.3171 101.709 39.2577 101.709 35.6047C101.709 34.2006 103.223 33.333 105.226 33.333C107.346 33.333 108.836 34.3262 108.964 35.776H107.276C107.136 35.1595 106.274 34.6572 105.226 34.6572C104.085 34.6572 103.34 35.0796 103.34 35.6504C103.34 37.4198 109.104 35.5705 109.104 39.2692Z" fill="#72584F"/>
<path d="M113.284 33.5042V41.4952H111.653V33.5042H113.284Z" fill="#72584F"/>
<path d="M117.786 36.1641V41.4952H116.156V33.5042H117.46L122.526 38.8011V33.5042H124.156V41.4952H122.84L117.786 36.1641Z" fill="#72584F"/>
<path d="M127.027 41.4952V33.5042H133.758V34.9769H128.657V36.7577H133.571V38.2303H128.657V40.0112H133.758V41.4952H127.027Z" fill="#72584F"/>
<path d="M143.785 39.2692C143.785 40.5934 142.469 41.6664 140.292 41.6664C138.102 41.6664 136.402 40.6162 136.286 39.0408H137.986C138.16 39.8057 139.08 40.2966 140.268 40.2966C141.375 40.2966 142.155 39.8399 142.155 39.2235C142.155 37.3171 136.39 39.2577 136.39 35.6047C136.39 34.2006 137.904 33.333 139.907 33.333C142.027 33.333 143.517 34.3262 143.646 35.776H141.957C141.817 35.1595 140.955 34.6572 139.907 34.6572C138.766 34.6572 138.021 35.0796 138.021 35.6504C138.021 37.4198 143.785 35.5705 143.785 39.2692Z" fill="#72584F"/>
<path d="M153.485 39.2692C153.485 40.5934 152.169 41.6664 149.991 41.6664C147.802 41.6664 146.101 40.6162 145.985 39.0408H147.685C147.86 39.8057 148.78 40.2966 149.968 40.2966C151.074 40.2966 151.854 39.8399 151.854 39.2235C151.854 37.3171 146.09 39.2577 146.09 35.6047C146.09 34.2006 147.604 33.333 149.607 33.333C151.726 33.333 153.217 34.3262 153.345 35.776H151.656C151.517 35.1595 150.655 34.6572 149.607 34.6572C148.466 34.6572 147.72 35.0796 147.72 35.6504C147.72 37.4198 153.485 35.5705 153.485 39.2692Z" fill="#72584F"/>
<path d="M161.624 37.5111C161.624 39.0523 162.812 40.1367 164.465 40.1367C165.642 40.1367 166.562 39.6002 167.016 38.7326H168.739C168.238 40.5249 166.562 41.6664 164.465 41.6664C161.915 41.6664 159.993 39.8856 159.993 37.5111C159.993 35.1024 161.903 33.333 164.465 33.333C166.562 33.333 168.227 34.4746 168.739 36.2668H167.016C166.573 35.3878 165.653 34.8627 164.465 34.8627C162.8 34.8627 161.624 35.9358 161.624 37.5111Z" fill="#72584F"/>
<path d="M171.294 41.4952V33.5042H178.025V34.9769H172.924V36.7577H177.838V38.2303H172.924V40.0112H178.025V41.4952H171.294Z" fill="#72584F"/>
<path d="M182.544 36.1641V41.4952H180.913V33.5042H182.218L187.284 38.8011V33.5042H188.914V41.4952H187.598L182.544 36.1641Z" fill="#72584F"/>
<path d="M194.16 41.4952V34.9769H191.272V33.5042H198.655V34.9769H195.79V41.4952H194.16Z" fill="#72584F"/>
<path d="M201.04 41.4952V33.5042H207.771V34.9769H202.671V36.7577H207.585V38.2303H202.671V40.0112H207.771V41.4952H201.04Z" fill="#72584F"/>
<path d="M216.308 41.4952L214.503 39.1664H212.291V41.4952H210.66V33.5042H214.853C216.599 33.5042 218.043 34.6344 218.043 36.3353C218.043 37.4541 217.298 38.3901 216.285 38.8582L218.335 41.4952H216.308ZM216.413 36.3353C216.413 35.5476 215.761 34.9769 214.853 34.9769H212.291V37.671H214.853C215.749 37.671 216.413 37.0888 216.413 36.3353Z" fill="#72584F"/>
<path d="M21.5131 17.8084C21.5131 21.7811 17.7383 25.0003 11.4915 25.0003C5.21126 25.0003 0.334055 21.8496 0 17.1235H4.8772C5.37828 19.4181 8.01732 20.8907 11.4247 20.8907C14.5982 20.8907 16.8364 19.5208 16.8364 17.6715C16.8364 11.9522 0.300649 17.7742 0.300649 6.81515C0.300649 2.60277 4.64336 0 10.3891 0C16.4689 0 20.7448 2.97949 21.1123 7.32886H16.2685C15.8676 5.47952 13.3956 3.97265 10.3891 3.97265C7.11537 3.97265 4.97742 5.23979 4.97742 6.95214C4.97742 12.2604 21.5131 6.71241 21.5131 17.8084Z" fill="#72584F"/>
<path d="M31.4364 24.4866V4.93157H23.1518V0.513705H44.3309V4.93157H36.1132V24.4866H31.4364Z" fill="#72584F"/>
<path d="M43.6163 22.5003C43.6163 21.0619 44.6185 20.0345 46.1217 20.0345C47.5248 20.0345 48.5269 21.0619 48.5269 22.5003C48.5269 24.0414 47.5248 25.0003 46.1217 25.0003C44.6185 25.0003 43.6163 24.0414 43.6163 22.5003Z" fill="#72584F"/>
<path d="M60.1476 24.4866V0.513705H72.1068C77.1176 0.513705 81.3267 3.90416 81.3267 9.00696C81.3267 13.8358 76.8838 17.5002 72.1068 17.5002H64.8244V24.4866H60.1476ZM76.6499 9.00696C76.6499 6.64392 74.7124 4.93157 72.1068 4.93157H64.8244V13.0139H72.1068C74.679 13.0139 76.6499 11.2673 76.6499 9.00696Z" fill="#72584F"/>
<path d="M84.6145 24.4866V0.513705H103.923V4.93157H89.2913V10.2741H103.388V14.692H89.2913V20.0345H103.923V24.4866H84.6145Z" fill="#72584F"/>
<path d="M114.559 24.4866V4.93157H106.274V0.513705H127.453V4.93157H119.235V24.4866H114.559Z" fill="#72584F"/>
<path d="M130.286 24.4866V0.513705H149.594V4.93157H134.963V10.2741H149.06V14.692H134.963V20.0345H149.594V24.4866H130.286Z" fill="#72584F"/>
<path d="M170.074 24.4866L164.896 17.5002H158.549V24.4866H153.872V0.513705H165.898C170.909 0.513705 175.051 3.90416 175.051 9.00696C175.051 12.3632 172.913 15.1714 170.007 16.5756L175.886 24.4866H170.074ZM170.374 9.00696C170.374 6.64392 168.504 4.93157 165.898 4.93157H158.549V13.0139H165.898C168.47 13.0139 170.374 11.2673 170.374 9.00696Z" fill="#72584F"/>
<path d="M198.425 17.8084C198.425 21.7811 194.65 25.0003 188.404 25.0003C182.123 25.0003 177.246 21.8496 176.912 17.1235H181.789C182.29 19.4181 184.929 20.8907 188.337 20.8907C191.51 20.8907 193.748 19.5208 193.748 17.6715C193.748 11.9522 177.213 17.7742 177.213 6.81515C177.213 2.60277 181.555 0 187.301 0C193.381 0 197.657 2.97949 198.024 7.32886H193.18C192.78 5.47952 190.308 3.97265 187.301 3.97265C184.027 3.97265 181.889 5.23979 181.889 6.95214C181.889 12.2604 198.425 6.71241 198.425 17.8084Z" fill="#72584F"/>
<path d="M201.762 24.4866V0.513705H213.588C218.431 0.513705 221.705 2.97949 221.705 6.78091C221.705 9.14395 220.269 11.096 218.064 12.1919C220.97 13.1851 222.774 15.1714 222.774 17.8084C222.774 21.8153 218.866 24.4866 213.588 24.4866H201.762ZM217.229 7.53434C217.229 5.78775 215.692 4.62335 213.588 4.62335H206.439V10.3768H213.588C215.559 10.3768 217.229 9.1782 217.229 7.53434ZM218.064 17.3632C218.064 15.4112 216.394 14.3495 213.588 14.3495H206.439V20.3427H213.588C216.293 20.3427 218.064 19.2126 218.064 17.3632Z" fill="#72584F"/>
<path d="M236.858 20.3085C240.499 20.3085 243.072 17.4317 243.072 13.2536V0.513705H247.748V13.2536C247.748 19.8633 243.339 24.8976 236.858 24.8976C230.511 24.8976 225.968 19.8633 225.968 13.2536V0.513705H230.645V13.2536C230.645 17.329 233.284 20.3085 236.858 20.3085Z" fill="#72584F"/>
<path d="M268.17 24.4866L262.992 17.5002H256.645V24.4866H251.968V0.513705H263.994C269.005 0.513705 273.147 3.90416 273.147 9.00696C273.147 12.3632 271.009 15.1714 268.103 16.5756L273.982 24.4866H268.17ZM268.47 9.00696C268.47 6.64392 266.6 4.93157 263.994 4.93157H256.645V13.0139H263.994C266.566 13.0139 268.47 11.2673 268.47 9.00696Z" fill="#72584F"/>
<path d="M279.222 12.5344C279.222 17.2605 282.596 20.5482 287.306 20.5482C290.88 20.5482 293.653 18.4249 294.588 15.1029H287.072V11.096H300V24.4866H295.791L295.423 21.2674C293.219 23.6647 290.246 25.0003 286.738 25.0003C279.756 25.0003 274.545 19.6578 274.545 12.5344C274.545 5.30829 279.79 0 287.039 0C293.018 0 297.695 3.49319 299.198 9.00696H294.522C293.252 6.16446 290.513 4.41786 287.005 4.41786C282.462 4.41786 279.222 7.77407 279.222 12.5344Z" fill="#72584F"/>
</svg>
