<svg width="15" height="18" viewBox="0 0 15 18" fill="none" xmlns="http://www.w3.org/2000/svg">
<path d="M2.41738 0.42628C2.80387 0.380512 3.2048 0.464215 3.53865 0.662492C3.88089 0.863072 4.15154 1.18022 4.29316 1.54806C4.44362 1.93324 4.4503 2.3708 4.31241 2.76044C4.17545 3.15331 3.89238 3.49365 3.52965 3.70329C3.1857 3.90526 2.77126 3.98481 2.37561 3.92891C1.95139 3.87178 1.55232 3.65507 1.27375 3.33377C1.00931 3.0329 0.853871 2.64096 0.841138 2.24241C0.824678 1.8242 0.965827 1.4023 1.23182 1.07671C1.52049 0.717321 1.95604 0.477116 2.41738 0.42628Z" fill="#FF8A00"/>
<path d="M0.910156 4.70703C2.0541 4.70703 3.19789 4.70703 4.34183 4.70703C4.3409 4.84848 4.34603 4.99009 4.33345 5.13108C3.5055 5.4966 2.74339 6.01833 2.13065 6.6815C1.635 7.21782 1.24245 7.85212 1.01559 8.54478C0.980498 8.54877 0.945249 8.55338 0.910156 8.55829C0.910156 7.27449 0.910156 5.99084 0.910156 4.70703Z" fill="#FF8A00"/>
<path d="M6.72541 4.86172C7.10538 4.81657 7.48923 4.79538 7.87153 4.82271C9.22246 4.90672 10.5551 5.37178 11.6344 6.185C11.7152 6.24858 11.8012 6.30556 11.8822 6.36899C12.3546 6.73068 12.7593 7.18038 13.0596 7.69166C13.1445 7.84232 13.2397 7.987 13.3204 8.13997C13.6729 8.7887 13.9076 9.50087 14.0034 10.2315C14.028 10.4046 14.0338 10.5793 14.0456 10.7537C14.1729 12.8974 14.0628 15.0445 14.0902 17.19C13.0162 17.19 11.9423 17.19 10.8683 17.19C10.8683 16.3184 10.8683 15.447 10.8683 14.5754C10.8697 13.649 10.8653 12.7221 10.8708 11.796C10.8557 11.0144 10.5975 10.2477 10.1827 9.58611C9.70227 8.83939 8.90212 8.2808 8.00926 8.1541C7.31392 8.06179 6.57168 8.15041 5.96407 8.51486C5.4855 8.77903 5.09016 9.17635 4.80072 9.63418C4.42292 10.2319 4.20771 10.9241 4.14529 11.6245C4.14389 13.4796 4.14513 15.3349 4.14466 17.19C3.0706 17.19 1.99668 17.19 0.92277 17.19C0.930068 16.7947 0.925099 16.3991 0.926496 16.0038C0.915937 14.7547 0.896372 13.5053 0.912211 12.2562C0.922614 11.6963 0.939695 11.1364 0.974478 10.5773C1.04373 9.56154 1.39218 8.57169 1.94265 7.71377C2.28923 7.08608 2.8223 6.58079 3.40274 6.16411C3.7442 5.91807 4.1032 5.69445 4.48379 5.51215C5.1869 5.17242 5.94917 4.95572 6.72541 4.86172Z" fill="#464646"/>
</svg>
